<?xml version="1.0" encoding="UTF-8" standalone="no"?>
<!DOCTYPE svg PUBLIC "-//W3C//DTD SVG 1.1//EN" "http://www.w3.org/Graphics/SVG/1.1/DTD/svg11.dtd">
<svg width="100%" height="100%" viewBox="0 0 1200 300" version="1.1" xmlns="http://www.w3.org/2000/svg" xmlns:xlink="http://www.w3.org/1999/xlink" xml:space="preserve" xmlns:serif="http://www.serif.com/" style="fill-rule:evenodd;clip-rule:evenodd;stroke-linecap:square;stroke-miterlimit:2;">
    <g transform="matrix(0.880586,0,0,0.880586,7.72629,24.8742)">
        <path d="M135.971,277.085C117.231,286.027 95.163,285.707 75.025,280.642C64.057,277.884 53.313,273.722 44.12,267.134C18.341,248.657 8.856,212.674 16.515,181.895C20.867,164.409 29.892,148.478 39.371,133.154C67.814,87.172 101.235,44.436 136.596,3.536C138.044,1.861 139.766,0.055 141.98,0.001C144.324,-0.056 146.184,1.867 147.716,3.641C179.015,39.883 208.736,77.551 235.332,117.371C247.555,135.671 259.241,154.697 265.587,175.769C271.932,196.841 272.495,220.407 262.904,240.214C253.597,259.435 235.247,273.557 214.812,279.762C194.377,285.966 172.094,284.668 151.715,278.282C146.562,276.667 140.844,274.76 135.971,277.085M120.19,230.036C114.86,218.33 103.988,210.337 94.677,201.464C85.365,192.591 76.805,180.798 78.481,168.046C80.051,156.105 90.768,146.772 102.5,144.05C114.232,141.328 126.624,144.173 137.673,148.965C141.855,150.779 146.617,148.953 150.908,147.416C161.239,143.716 172.563,141.695 183.203,144.38C193.843,147.066 203.563,155.257 205.645,166.032C208.247,179.503 198.887,192.268 188.931,201.709C178.974,211.15 167.326,220.085 163.134,233.15C161.947,236.85 161.49,241.118 163.501,244.444C164.944,246.831 167.442,248.37 169.957,249.578C183.392,256.034 200.083,255.169 212.78,247.359C225.476,239.55 233.776,225.043 234.074,210.14C234.37,195.291 227.365,181.393 220.535,168.205C194.016,117.003 167.496,65.801 140.977,14.6C119.745,69.891 86.544,119.696 60.835,173.053C55.35,184.436 50.105,196.43 50.126,209.065C50.151,223.826 57.961,238.354 70.26,246.517C82.558,254.68 98.979,256.235 112.591,250.525C115.858,249.154 119.115,247.25 120.865,244.17C123.287,239.909 122.221,234.496 120.19,230.036M120.675,187.073C128.754,193.517 135.906,201.119 141.845,209.574C151.963,196.9 164.013,185.77 177.451,176.69C178.632,175.892 179.867,175.064 180.569,173.823C181.271,172.582 181.236,170.795 180.098,169.937C179.547,169.522 178.839,169.387 178.157,169.283C172.846,168.471 167.359,168.827 162.198,170.319C159.264,171.166 156.445,172.372 153.521,173.252C144.225,176.052 133.933,175.403 125.062,171.458C119.227,168.863 112.569,168.159 106.32,169.474C105.411,169.666 104.43,169.952 103.905,170.719C102.878,172.22 104.288,174.167 105.649,175.375C110.399,179.589 115.711,183.114 120.675,187.073L120.675,187.073Z" style="fill:rgb(23,168,201);fill-rule:nonzero;"/>
    </g>
    <g transform="matrix(1.07048,0,0,1.07048,-39.4204,-16.1914)">
        <text x="324.11px" y="234.404px" style="font-family:'Ubuntu-Light', 'Ubuntu', sans-serif;font-weight:300;font-size:236.554px;fill:rgb(14,18,29);stroke:rgb(14,18,29);stroke-width:2.8px;">ssadam</text>
    </g>
</svg>
